<svg width="18" height="17" viewBox="0 0 18 17" fill="none" xmlns="http://www.w3.org/2000/svg">
<path d="M17.0638 10.3696C16.3016 9.47944 15.9552 8.70806 15.9552 7.39756V6.95196C15.9552 5.24421 15.5621 4.1439 14.7076 3.04358C13.3905 1.33478 11.1733 0.304871 9.00266 0.304871H8.91036C6.7854 0.304871 4.63762 1.28748 3.29772 2.92693C2.39651 4.04931 1.95782 5.19692 1.95782 6.95196V7.39756C1.95782 8.70806 1.63426 9.47944 0.849193 10.3696C0.271544 11.0253 0.0869446 11.8682 0.0869446 12.7804C0.0869446 13.6936 0.386659 14.5586 0.988161 15.2616C1.77322 16.1045 2.88186 16.6425 4.01434 16.7361C5.65395 16.9231 7.29356 16.9935 8.95703 16.9935C10.6195 16.9935 12.2591 16.8758 13.8997 16.7361C15.0312 16.6425 16.1398 16.1045 16.9249 15.2616C17.5253 14.5586 17.8261 13.6936 17.8261 12.7804C17.8261 11.8682 17.6415 11.0253 17.0638 10.3696Z" fill="#0F808C"/>
</svg>
